<svg width="602" height="600" viewBox="0 0 602 600" fill="none" xmlns="http://www.w3.org/2000/svg">
<path d="M378.302 64.918L420.208 105.353L462.326 333.295H67.2539L378.302 64.918Z" fill="#FFCF2D"/>
<path d="M420.568 105.036L378.535 64.4735L385.565 57.1697C395.92 46.4151 414.575 47.643 425.333 57.9742C436.09 68.3265 437.974 86.9776 427.62 97.7322L420.568 105.036Z" fill="white"/>
<path d="M420.59 105.925L377.646 64.4945L385.12 56.725C390.16 51.4747 397.339 48.7437 405.343 49.0189C413.009 49.2942 420.462 52.385 425.799 57.5083C431.135 62.6315 434.502 69.9776 435.052 77.6413C435.624 85.6226 433.147 92.9052 428.107 98.1555L420.59 105.925ZM379.424 64.4522L420.547 104.126L427.154 97.2875C431.961 92.3124 434.29 85.3685 433.761 77.7472C433.231 70.3799 430.013 63.3513 424.888 58.4398C419.764 53.5282 412.628 50.5644 405.28 50.3103C397.656 50.0351 390.817 52.6391 386.031 57.6141L379.424 64.4522Z" fill="#FFCF2D"/>
<path d="M427.599 98.367C427.43 98.367 427.281 98.3035 427.154 98.1977L385.1 57.6352C384.845 57.3811 384.845 57 385.078 56.746C385.332 56.492 385.735 56.492 385.968 56.7248L428.022 97.2873C428.277 97.5414 428.277 97.9224 428.044 98.1765C427.938 98.3035 427.768 98.367 427.599 98.367Z" fill="#FFCF2D"/>
<path d="M508.828 332.194C508.743 332.194 508.659 332.173 508.574 332.131C508.256 331.983 508.108 331.602 508.256 331.284L567.23 199.773L451.929 59.456V59.4348C449.748 56.4709 446.551 54.5656 442.909 54.0364C439.266 53.5071 435.645 54.4598 432.723 56.7038L428.022 60.3028C427.747 60.5145 427.345 60.4722 427.133 60.1758C426.921 59.9006 426.963 59.4983 427.26 59.2866L431.961 55.6876C435.158 53.253 439.118 52.2157 443.099 52.7873C447.08 53.3589 450.574 55.4336 452.946 58.6727L568.713 199.583L568.543 199.943L509.4 331.813C509.294 332.046 509.061 332.194 508.828 332.194Z" fill="#3FB1B5"/>
<path d="M566.087 206.865C569.665 206.865 572.566 203.965 572.566 200.387C572.566 196.81 569.665 193.909 566.087 193.909C562.508 193.909 559.607 196.81 559.607 200.387C559.607 203.965 562.508 206.865 566.087 206.865Z" fill="white"/>
<path d="M566.087 207.501C562.169 207.501 558.972 204.304 558.972 200.388C558.972 196.471 562.169 193.274 566.087 193.274C570.004 193.274 573.202 196.471 573.202 200.388C573.202 204.304 570.004 207.501 566.087 207.501ZM566.087 194.545C562.868 194.545 560.242 197.17 560.242 200.388C560.242 203.606 562.868 206.231 566.087 206.231C569.305 206.231 571.931 203.606 571.931 200.388C571.931 197.17 569.305 194.545 566.087 194.545Z" fill="#FFCF2D"/>
<path d="M492.396 316.824H523.969C533.053 316.824 540.401 324.192 540.401 333.252V333.718H475.942V333.252C475.964 324.192 483.311 316.824 492.396 316.824Z" fill="white"/>
<path d="M541.036 334.354H475.307V333.253C475.328 323.853 482.994 316.189 492.396 316.189H523.969C533.371 316.189 541.036 323.853 541.036 333.253V334.354ZM476.578 333.083H539.766C539.681 324.446 532.629 317.46 523.969 317.46H492.396C483.756 317.46 476.684 324.446 476.578 333.083Z" fill="#FFCF2D"/>
<path d="M339.444 285.64H139.568C132.051 285.64 125.974 279.564 125.974 272.049V132.282C125.974 124.766 132.051 118.69 139.568 118.69H339.444C346.962 118.69 353.039 124.766 353.039 132.282V272.028C353.06 279.543 346.962 285.64 339.444 285.64Z" fill="white"/>
<path d="M339.444 286.276H139.568C131.712 286.276 125.338 279.903 125.338 272.049V132.282C125.338 124.428 131.712 118.056 139.568 118.056H339.444C347.301 118.056 353.674 124.428 353.674 132.282V272.028C353.696 275.818 352.213 279.395 349.524 282.084C346.835 284.794 343.256 286.276 339.444 286.276ZM139.568 119.326C132.432 119.326 126.609 125.148 126.609 132.282V272.049C126.609 279.184 132.432 285.005 139.568 285.005H339.444C342.917 285.005 346.178 283.651 348.635 281.195C351.07 278.739 352.425 275.479 352.404 272.028V132.282C352.404 125.148 346.581 119.326 339.444 119.326H139.568Z" fill="#3FB1B5"/>
<path d="M339.572 272.642H141.623C138.679 272.642 136.308 270.249 136.308 267.328V133.616C136.308 130.673 138.7 128.302 141.623 128.302H339.572C342.515 128.302 344.887 130.694 344.887 133.616V267.307C344.908 270.249 342.515 272.642 339.572 272.642Z" fill="#66B0F0"/>
<path d="M339.572 273.277H141.623C138.34 273.277 135.672 270.61 135.672 267.328V133.616C135.672 130.334 138.34 127.667 141.623 127.667H339.572C342.854 127.667 345.522 130.334 345.522 133.616V267.307C345.543 268.895 344.929 270.398 343.807 271.52C342.663 272.642 341.181 273.277 339.572 273.277ZM141.623 128.937C139.039 128.937 136.943 131.033 136.943 133.616V267.328C136.943 269.911 139.039 272.007 141.623 272.007H339.572C340.821 272.007 342.007 271.52 342.896 270.631C343.786 269.742 344.252 268.577 344.252 267.328V133.616C344.252 131.033 342.155 128.937 339.572 128.937H141.623Z" fill="#66B0F0"/>
<path d="M148.716 141.428H145.582C144.206 141.428 143.083 140.306 143.083 138.93V135.797C143.083 134.421 144.206 133.299 145.582 133.299H148.716C150.093 133.299 151.215 134.421 151.215 135.797V138.93C151.194 140.327 150.093 141.428 148.716 141.428ZM145.582 134.569C144.905 134.569 144.354 135.119 144.354 135.797V138.93C144.354 139.608 144.905 140.158 145.582 140.158H148.716C149.394 140.158 149.923 139.608 149.944 138.909V135.797C149.944 135.119 149.394 134.569 148.716 134.569H145.582Z" fill="white"/>
<path d="M162.967 141.428H159.833C158.457 141.428 157.334 140.306 157.334 138.93V135.797C157.334 134.421 158.457 133.299 159.833 133.299H162.967C164.344 133.299 165.466 134.421 165.466 135.797V138.93C165.466 140.306 164.344 141.428 162.967 141.428ZM159.833 134.569C159.156 134.569 158.605 135.119 158.605 135.797V138.93C158.605 139.608 159.156 140.158 159.833 140.158H162.967C163.645 140.158 164.195 139.608 164.195 138.93V135.797C164.195 135.119 163.645 134.569 162.967 134.569H159.833Z" fill="white"/>
<path d="M177.219 141.428H174.085C172.708 141.428 171.586 140.306 171.586 138.93V135.797C171.586 134.421 172.708 133.299 174.085 133.299H177.219C178.595 133.299 179.717 134.421 179.717 135.797V138.93C179.717 140.306 178.595 141.428 177.219 141.428ZM174.085 134.569C173.407 134.569 172.856 135.119 172.856 135.797V138.93C172.856 139.608 173.407 140.158 174.085 140.158H177.219C177.917 140.158 178.447 139.629 178.447 138.93V135.797C178.447 135.119 177.896 134.569 177.219 134.569H174.085Z" fill="white"/>
<path d="M281.699 333.295H204.112L219.337 285.641H266.453L281.699 333.295Z" fill="white"/>
<path d="M282.567 333.931H203.243L218.871 285.006H266.918L282.567 333.931ZM204.98 332.66H280.83L265.986 286.276H219.802L204.98 332.66Z" fill="#3FB1B5"/>
<path d="M210.21 314.221L219.337 285.641H266.452L210.21 314.221Z" fill="#3FB1B5"/>
<path d="M328.052 172.781H290.338C286.463 172.781 283.308 169.627 283.308 165.752V141.407C283.308 137.532 286.463 134.378 290.338 134.378H328.052C331.927 134.378 335.082 137.532 335.082 141.407V165.752C335.082 169.627 331.927 172.781 328.052 172.781ZM290.338 135.648C287.162 135.648 284.579 138.231 284.579 141.407V165.752C284.579 168.928 287.162 171.511 290.338 171.511H328.052C331.228 171.511 333.812 168.928 333.812 165.752V141.407C333.812 138.231 331.228 135.648 328.052 135.648H290.338Z" fill="white"/>
<path d="M323.499 144.328H294.722C294.362 144.328 294.086 144.053 294.086 143.693C294.086 143.333 294.362 143.058 294.722 143.058H323.499C323.859 143.058 324.134 143.333 324.134 143.693C324.134 144.053 323.859 144.328 323.499 144.328Z" fill="white"/>
<path d="M323.499 150.891H294.722C294.362 150.891 294.086 150.616 294.086 150.256C294.086 149.896 294.362 149.621 294.722 149.621H323.499C323.859 149.621 324.134 149.896 324.134 150.256C324.134 150.616 323.859 150.891 323.499 150.891Z" fill="white"/>
<path d="M323.499 157.454H294.722C294.362 157.454 294.086 157.179 294.086 156.819C294.086 156.459 294.362 156.184 294.722 156.184H323.499C323.859 156.184 324.134 156.459 324.134 156.819C324.134 157.179 323.859 157.454 323.499 157.454Z" fill="white"/>
<path d="M323.499 164.016H294.722C294.362 164.016 294.086 163.741 294.086 163.381C294.086 163.021 294.362 162.746 294.722 162.746H323.499C323.859 162.746 324.134 163.021 324.134 163.381C324.134 163.741 323.859 164.016 323.499 164.016Z" fill="white"/>
<path d="M338.47 272.643H188.569L179.781 285.239C169.849 299.466 148.864 299.677 138.658 285.641L85.126 212.032C87.3706 214.826 97.6407 211.714 107.424 205.279C117.355 198.737 123.771 190.502 121.76 187.453L158.88 234.748L170.252 214.678C173.365 209.364 178.531 205.554 184.545 204.157L223.233 195.964H256.584L293.345 204.072C299.74 205.533 305.161 209.703 308.232 215.483L338.47 272.643Z" fill="white"/>
<path d="M159.071 296.671C150.707 296.671 143.083 292.797 138.149 286.001L84.6177 212.392L85.6341 211.63C87.434 213.853 96.9842 211.397 107.085 204.749C111.786 201.658 115.873 198.081 118.583 194.651C121.04 191.56 122.035 188.998 121.23 187.792L122.268 187.051L158.796 233.605L169.701 214.361C172.899 208.899 178.256 204.961 184.397 203.543L223.169 195.328H256.648L256.711 195.35L293.472 203.458C300.037 204.961 305.627 209.237 308.782 215.186L339.508 273.278H188.886L180.289 285.599C175.44 292.543 167.795 296.586 159.304 296.671C159.24 296.671 159.156 296.671 159.071 296.671ZM87.074 213.62L139.187 285.26C143.93 291.781 151.257 295.486 159.325 295.401C167.393 295.316 174.656 291.484 179.272 284.879L188.251 272.008H337.433L307.681 215.779C304.695 210.148 299.422 206.104 293.218 204.686L256.521 196.599H223.296L184.672 204.77C178.87 206.125 173.809 209.851 170.802 214.996L158.965 235.891L122.67 189.655C122.374 191.243 121.336 193.233 119.557 195.455C116.762 198.97 112.569 202.653 107.763 205.808C101.05 210.211 92.982 213.683 88.1752 213.683C87.794 213.683 87.4128 213.662 87.074 213.62Z" fill="#3FB1B5"/>
<path d="M297.327 272.41C297.094 272.41 296.882 272.283 296.755 272.072L286.104 251.049C285.955 250.732 286.061 250.351 286.379 250.203C286.696 250.054 287.078 250.16 287.226 250.478L297.877 271.5C298.025 271.818 297.919 272.199 297.602 272.347C297.517 272.389 297.432 272.41 297.327 272.41Z" fill="#3FB1B5"/>
<path d="M187.722 274.379C187.616 274.379 187.531 274.358 187.425 274.315C187.108 274.167 186.981 273.765 187.15 273.469L197.695 252.658C197.844 252.341 198.246 252.214 198.542 252.383C198.86 252.531 198.987 252.933 198.818 253.23L188.272 274.04C188.166 274.252 187.955 274.379 187.722 274.379Z" fill="#3FB1B5"/>
<path d="M168.6 247.916C168.409 247.916 168.219 247.831 168.092 247.662L143.93 216.774C143.719 216.499 143.761 216.097 144.036 215.885C144.311 215.673 144.714 215.716 144.926 215.991L169.087 246.878C169.299 247.153 169.256 247.556 168.981 247.767C168.875 247.873 168.727 247.916 168.6 247.916Z" fill="#3FB1B5"/>
<path d="M252.879 217.854L243.583 206.528C243.35 206.253 243.392 205.851 243.668 205.639C243.943 205.406 244.345 205.449 244.557 205.724L253.048 216.034L272.466 199.563C272.742 199.33 273.144 199.373 273.356 199.627C273.589 199.902 273.546 200.304 273.292 200.516L252.879 217.854Z" fill="#3FB1B5"/>
<path d="M228.739 218.257L206.356 200.537C206.081 200.325 206.038 199.923 206.25 199.648C206.462 199.373 206.864 199.33 207.139 199.542L228.506 216.457L236.743 205.936C236.955 205.66 237.357 205.618 237.632 205.83C237.908 206.041 237.95 206.444 237.738 206.719L228.739 218.257Z" fill="#3FB1B5"/>
<path d="M95.3114 223.464C93.2997 223.464 92.2409 222.85 91.7116 222.172C91.4998 221.897 91.5422 221.495 91.8174 221.283C92.0927 221.071 92.495 221.114 92.7068 221.389C93.5962 222.511 96.4972 222.447 100.457 221.262C104.671 219.992 109.753 217.493 114.369 214.424C119.092 211.291 123.2 207.67 125.931 204.198C128.409 201.065 129.404 198.482 128.599 197.255C128.409 196.958 128.494 196.577 128.79 196.365C129.086 196.175 129.468 196.26 129.679 196.556C130.823 198.313 129.849 201.298 126.948 204.982C124.131 208.538 119.917 212.264 115.089 215.461C110.304 218.637 105.243 221.135 100.838 222.469C98.4454 223.188 96.6455 223.464 95.3114 223.464Z" fill="#3FB1B5"/>
<path d="M122.48 202.907C120.807 202.907 119.452 201.552 119.452 199.88C119.452 198.207 120.807 196.853 122.48 196.853C124.153 196.853 125.508 198.207 125.508 199.88C125.508 201.552 124.153 202.907 122.48 202.907ZM122.48 198.123C121.506 198.123 120.722 198.906 120.722 199.88C120.722 200.854 121.506 201.637 122.48 201.637C123.454 201.637 124.237 200.854 124.237 199.88C124.237 198.906 123.454 198.123 122.48 198.123Z" fill="#3FB1B5"/>
<path d="M240.639 217.939C238.966 217.939 237.611 216.584 237.611 214.911C237.611 213.239 238.966 211.884 240.639 211.884C242.312 211.884 243.667 213.239 243.667 214.911C243.667 216.584 242.312 217.939 240.639 217.939ZM240.639 213.154C239.665 213.154 238.881 213.937 238.881 214.911C238.881 215.885 239.665 216.668 240.639 216.668C241.613 216.668 242.396 215.885 242.396 214.911C242.396 213.937 241.613 213.154 240.639 213.154Z" fill="#3FB1B5"/>
<path d="M240.639 237.203C238.966 237.203 237.611 235.848 237.611 234.176C237.611 232.503 238.966 231.148 240.639 231.148C242.312 231.148 243.667 232.503 243.667 234.176C243.667 235.848 242.312 237.203 240.639 237.203ZM240.639 232.419C239.665 232.419 238.881 233.202 238.881 234.176C238.881 235.15 239.665 235.933 240.639 235.933C241.613 235.933 242.396 235.15 242.396 234.176C242.396 233.202 241.613 232.419 240.639 232.419Z" fill="#3FB1B5"/>
<path d="M179.019 286.255L188.569 272.643V286.255H179.019Z" fill="#3FB1B5"/>
<path d="M107.191 204.643C97.4075 211.079 87.1373 214.191 84.8927 211.397C84.8504 211.354 84.8292 211.312 84.7868 211.249C84.321 210.55 84.3633 209.597 84.7868 208.433C86.2479 204.601 92.283 198.673 99.9485 193.635C106.047 189.612 112.061 186.818 116.233 185.95C118.647 185.463 120.446 185.611 121.315 186.543L121.526 186.797C123.517 189.845 117.122 198.102 107.191 204.643Z" fill="#FE5244"/>
<path d="M107.191 204.643C101.622 208.305 95.883 210.909 91.5632 211.925L72.2299 184.658C69.5406 180.847 70.43 175.576 74.2628 172.887L91.6691 160.651L81.8013 143.863C80.3613 141.428 81.1872 138.274 83.6435 136.855C84.4482 136.389 85.3164 136.178 86.1846 136.178C87.8575 136.178 89.5092 137.003 90.4832 138.528L121.336 186.5L121.548 186.839C123.517 189.845 117.122 198.101 107.191 204.643Z" fill="#E57281"/>
<path d="M97.1322 184.975C96.8569 184.975 96.5816 184.954 96.3063 184.89C95.2476 184.679 94.337 184.043 93.7653 183.154L83.5798 167.912C83.3893 167.615 83.4739 167.234 83.7492 167.022C84.0457 166.832 84.4269 166.917 84.6386 167.192L94.824 182.434C95.2264 183.048 95.8405 183.472 96.5604 183.62C97.2804 183.768 98.0216 183.62 98.6356 183.218L101.028 181.651C102.299 180.826 102.659 179.132 101.854 177.862L91.076 161.158C90.8854 160.862 90.9701 160.481 91.2665 160.29C91.563 160.1 91.9442 160.184 92.1348 160.481L102.913 177.184C104.099 179.047 103.548 181.524 101.706 182.71L99.3132 184.276C98.678 184.742 97.9157 184.975 97.1322 184.975Z" fill="#9A3B82"/>
<path d="M89.234 190.035C87.9211 190.035 86.6294 189.4 85.8459 188.235C85.6553 187.939 85.74 187.558 86.0365 187.346C86.3329 187.156 86.7141 187.24 86.9258 187.537C87.7517 188.786 89.4457 189.146 90.7163 188.341L92.8974 186.965C93.5115 186.563 93.9561 185.949 94.1044 185.208C94.2526 184.467 94.1256 183.726 93.7232 183.112C93.5326 182.816 93.6173 182.435 93.9138 182.223C94.2102 182.032 94.5914 182.117 94.8032 182.413C95.3961 183.324 95.6078 184.403 95.3749 185.483C95.142 186.542 94.5067 187.452 93.5961 188.045L91.4151 189.421C90.7375 189.823 89.9751 190.035 89.234 190.035Z" fill="#9A3B82"/>
<path d="M81.4839 194.778C80.2133 194.778 78.964 194.185 78.1805 193.063L72.3996 184.912C72.1878 184.616 72.2725 184.235 72.5478 184.023C72.8231 183.811 73.2254 183.896 73.4372 184.171L79.2181 192.322C80.0863 193.529 81.7168 193.846 82.945 193.063L82.9873 193.042L84.999 191.92C85.6343 191.518 86.0578 190.904 86.2272 190.184C86.3966 189.443 86.2484 188.702 85.846 188.067L75.8723 173.247C75.6818 172.951 75.7453 172.57 76.0418 172.358C76.3382 172.168 76.7194 172.231 76.9311 172.528L86.9048 187.347C87.5189 188.278 87.7095 189.379 87.4766 190.438C87.2436 191.496 86.6084 192.407 85.6766 192.978L85.6554 192.999L83.6438 194.121C82.945 194.587 82.2038 194.778 81.4839 194.778Z" fill="#9A3B82"/>
<path d="M114.136 175.322L109.075 167.468C107.402 164.864 103.908 164.144 101.346 165.88L88.7891 174.39C88.7891 174.39 92.4313 180.932 101.283 175.745L104.247 180.466C98.191 184.298 96.4546 192.364 100.393 198.355L114.136 175.322Z" fill="#E57281"/>
<path d="M100.393 198.99C100.181 198.99 99.9908 198.884 99.8637 198.693C97.8732 195.645 97.1745 192.004 97.9579 188.447C98.6779 185.102 100.605 182.223 103.379 180.275L101.071 176.592C98.0215 178.264 95.2475 178.751 92.7911 178.095C89.6783 177.248 88.2807 174.792 88.2172 174.707L87.9419 174.199L100.308 165.562C101.706 164.63 103.358 164.292 104.988 164.63C106.619 164.969 108.016 165.922 108.927 167.34L113.988 175.194C114.178 175.491 114.094 175.872 113.797 176.062C113.501 176.253 113.12 176.168 112.929 175.872L107.868 168.018C107.148 166.896 106.047 166.133 104.734 165.879C103.442 165.604 102.108 165.879 101.028 166.62L89.6571 174.559C90.1653 175.216 91.3088 176.401 93.1299 176.888C95.3745 177.502 98.0003 176.93 100.944 175.216L101.473 174.898L105.094 180.677L104.565 181.016C101.791 182.773 99.8637 185.526 99.1649 188.743C98.4662 191.961 99.0802 195.264 100.901 198.016C101.092 198.312 101.007 198.693 100.711 198.905C100.626 198.948 100.52 198.99 100.393 198.99Z" fill="#9A3B82"/>
<path d="M107.191 204.644C101.622 208.306 95.883 210.91 91.5632 211.926L86.7563 205.152C89.4456 201.637 94.2525 197.403 99.9487 193.656C106.047 189.634 112.061 186.839 116.233 185.971C118.647 185.484 120.447 185.633 121.315 186.564L121.527 186.818C121.548 186.861 121.569 186.882 121.59 186.924C121.611 186.945 121.611 186.966 121.632 187.009C121.654 187.051 121.675 187.072 121.696 187.115C123.136 190.354 116.804 198.293 107.191 204.644Z" fill="#9A3B82"/>
<path d="M256.563 177.334V195.943C256.563 201.341 249.067 205.702 239.856 205.702C230.623 205.702 223.148 201.341 223.148 195.943V177.334H256.563Z" fill="#E57281"/>
<path d="M228.039 202.844C225.011 201.087 223.126 198.631 223.126 195.943V177.334H256.563V182.5C256.563 187.856 253.302 192.661 248.347 194.673L228.039 202.844Z" fill="#9A3B82"/>
<path d="M265.88 176.233V176.55C265.88 179.768 263.275 182.372 260.057 182.372H256.224C254.932 187.58 250.231 191.454 244.598 191.454H235.112C229.5 191.454 224.778 187.601 223.508 182.372H219.675C216.456 182.372 213.852 179.768 213.852 176.55V176.233C213.852 173.015 216.456 170.411 219.675 170.411H223.148V165.817C223.148 160.905 226.769 156.841 231.491 156.163C232.528 157.899 235.662 162.048 242.057 161.816C245.064 161.71 247.86 161.138 250.168 160.461C252.942 159.656 255.716 161.35 256.414 163.996C256.52 164.589 256.584 165.182 256.584 165.796V170.39H260.057C263.254 170.39 265.88 173.015 265.88 176.233Z" fill="#E57281"/>
<path d="M259.231 170.39H256.562V165.288C256.562 164.843 256.499 164.398 256.393 163.996C255.694 161.35 252.92 159.656 250.146 160.461C247.838 161.138 245.064 161.71 242.036 161.816C235.641 162.049 232.507 157.899 231.469 156.163C226.747 156.841 223.126 160.905 223.126 165.817V170.411H219.802C219.802 170.411 215.99 156.629 218.849 152.734C221.665 148.902 225.053 150.574 225.053 150.574C225.053 150.574 223.02 139.1 234.37 139.311C245.699 139.523 260.438 152.67 261.518 155.083C263.212 158.788 259.231 170.39 259.231 170.39Z" fill="#9A3B82"/>
<path d="M257.855 177.842C257.558 177.842 257.325 177.609 257.325 177.312C257.325 174.772 259.4 172.697 261.941 172.697C262.238 172.697 262.471 172.93 262.471 173.227C262.471 173.523 262.238 173.756 261.941 173.756C259.972 173.756 258.384 175.344 258.384 177.312C258.384 177.609 258.151 177.842 257.855 177.842Z" fill="#9A3B82"/>
<path d="M221.898 177.842C221.602 177.842 221.369 177.609 221.369 177.312C221.369 175.344 219.78 173.756 217.811 173.756C217.515 173.756 217.282 173.523 217.282 173.227C217.282 172.93 217.515 172.697 217.811 172.697C220.352 172.697 222.427 174.772 222.427 177.312C222.427 177.609 222.194 177.842 221.898 177.842Z" fill="#9A3B82"/>
<path d="M251.226 166.346C251.121 166.346 251.015 166.303 250.909 166.24C250.803 166.155 248.071 164.229 244.577 165.689C244.302 165.795 244.006 165.668 243.878 165.393C243.773 165.118 243.9 164.822 244.175 164.694C248.241 163.022 251.396 165.266 251.523 165.372C251.756 165.541 251.819 165.88 251.629 166.113C251.544 166.261 251.396 166.346 251.226 166.346Z" fill="#9A3B82"/>
<path d="M228.272 166.346C228.103 166.346 227.955 166.261 227.849 166.134C227.679 165.902 227.722 165.563 227.955 165.393C228.082 165.288 231.258 163.043 235.303 164.716C235.578 164.822 235.705 165.139 235.599 165.415C235.493 165.69 235.175 165.817 234.9 165.711C231.385 164.25 228.611 166.24 228.569 166.261C228.484 166.304 228.378 166.346 228.272 166.346Z" fill="#9A3B82"/>
<path d="M241.189 184.171C240.363 184.171 239.41 184.002 238.33 183.599C238.055 183.494 237.907 183.197 238.013 182.922C238.119 182.647 238.415 182.499 238.69 182.604C243.137 184.256 244.598 181.334 244.662 181.207C244.789 180.953 245.107 180.826 245.361 180.953C245.615 181.08 245.742 181.398 245.615 181.652C245.594 181.694 244.387 184.171 241.189 184.171Z" fill="#9A3B82"/>
<path d="M239.686 180.191C239.199 180.191 238.67 180.191 238.225 180.149C237.928 180.128 237.717 179.874 237.738 179.577C237.759 179.281 238.013 179.069 238.31 179.09C239.559 179.175 241.486 179.09 241.507 179.09C241.804 179.069 242.036 179.302 242.058 179.598C242.079 179.895 241.846 180.128 241.549 180.149C241.507 180.149 240.639 180.191 239.686 180.191Z" fill="#9A3B82"/>
<path d="M247.817 174.645C248.402 174.645 248.876 173.848 248.876 172.866C248.876 171.884 248.402 171.088 247.817 171.088C247.232 171.088 246.758 171.884 246.758 172.866C246.758 173.848 247.232 174.645 247.817 174.645Z" fill="#9A3B82"/>
<path d="M232.634 174.645C233.219 174.645 233.693 173.848 233.693 172.866C233.693 171.884 233.219 171.088 232.634 171.088C232.049 171.088 231.575 171.884 231.575 172.866C231.575 173.848 232.049 174.645 232.634 174.645Z" fill="#9A3B82"/>
<path d="M235.154 179.387H228.484C226.917 179.387 225.625 178.095 225.625 176.529V169.86C225.625 168.293 226.917 167.002 228.484 167.002H235.154C236.721 167.002 238.013 168.293 238.013 169.86V176.529C238.034 177.27 237.737 177.989 237.208 178.519C236.657 179.09 235.937 179.387 235.154 179.387ZM228.484 168.06C227.488 168.06 226.684 168.865 226.684 169.86V176.529C226.684 177.524 227.488 178.328 228.484 178.328H235.154C235.641 178.328 236.107 178.138 236.446 177.778C236.785 177.439 236.954 176.994 236.954 176.529V169.86C236.954 168.865 236.149 168.06 235.154 168.06H228.484Z" fill="white"/>
<path d="M251.48 179.387H244.81C243.243 179.387 241.951 178.095 241.951 176.529V169.86C241.951 168.293 243.243 167.002 244.81 167.002H251.48C253.047 167.002 254.339 168.293 254.339 169.86V176.529C254.339 178.095 253.047 179.387 251.48 179.387ZM244.81 168.06C243.815 168.06 243.01 168.865 243.01 169.86V176.529C243.01 177.524 243.815 178.328 244.81 178.328H251.48C252.475 178.328 253.28 177.524 253.28 176.529V169.86C253.28 168.865 252.475 168.06 251.48 168.06H244.81Z" fill="white"/>
<path d="M242.481 171.405H237.504V172.464H242.481V171.405Z" fill="white"/>
<path d="M253.239 265.063H230.094C227.637 265.063 225.647 263.073 225.647 260.617V248.317C225.647 245.861 227.637 243.871 230.094 243.871H253.239C255.695 243.871 257.686 245.861 257.686 248.317V260.617C257.686 263.073 255.695 265.063 253.239 265.063ZM230.094 245.141C228.336 245.141 226.918 246.56 226.918 248.317V260.617C226.918 262.374 228.336 263.792 230.094 263.792H253.239C254.996 263.792 256.415 262.374 256.415 260.617V248.317C256.415 246.56 254.996 245.141 253.239 245.141H230.094Z" fill="#66B0F0"/>
<path d="M242.248 259.474H234.413C233.164 259.474 232.147 258.457 232.147 257.208V251.725C232.147 250.476 233.164 249.46 234.413 249.46H242.248C243.498 249.46 244.514 250.476 244.514 251.725V257.208C244.514 258.457 243.498 259.474 242.248 259.474Z" fill="#66B0F0"/>
<path d="M249.872 259.325L247.458 257.716C246.801 257.272 246.399 256.51 246.399 255.684V253.271C246.399 252.445 246.801 251.683 247.458 251.238L249.872 249.629C250.443 249.248 251.185 249.672 251.185 250.391V258.584C251.206 259.283 250.443 259.706 249.872 259.325Z" fill="#66B0F0"/>
<path d="M562.783 334.354H0.635267C0.275282 334.354 0 334.079 0 333.719C0 333.359 0.275282 333.084 0.635267 333.084H562.783C563.143 333.084 563.418 333.359 563.418 333.719C563.418 334.079 563.143 334.354 562.783 334.354Z" fill="#3FB1B5"/>
<path d="M181.623 337.424V598.794H166.864V549.043C166.864 544.407 163.094 540.639 158.457 540.639H52.8121C48.1746 540.639 44.4054 544.407 44.4054 549.043V598.794H29.646V337.424H181.623Z" fill="white"/>
<path d="M182.258 599.429H166.228V549.044C166.228 544.767 162.734 541.274 158.457 541.274H52.8121C48.5346 541.274 45.0407 544.767 45.0407 549.044V599.429H29.0107V336.789H182.258V599.429ZM167.499 598.159H180.988V338.059H30.2813V598.159H43.7701V549.044C43.7701 544.069 47.8358 540.004 52.8121 540.004H158.457C163.433 540.004 167.499 544.069 167.499 549.044V598.159Z" fill="#3FB1B5"/>
<path d="M182.068 337.424V406.778L29.646 532.255L29.6672 337.424H182.068Z" fill="#D0F0E4"/>
<path d="M158.901 413.32H52.3883C47.645 413.32 43.791 409.467 43.791 404.725V357.325C43.791 352.583 47.645 348.729 52.3883 348.729H158.901C163.645 348.729 167.499 352.583 167.499 357.325V404.725C167.499 409.467 163.645 413.32 158.901 413.32ZM52.3883 350C48.3438 350 45.0615 353.281 45.0615 357.325V404.725C45.0615 408.769 48.3438 412.05 52.3883 412.05H158.901C162.946 412.05 166.228 408.769 166.228 404.725V357.325C166.228 353.281 162.946 350 158.901 350H52.3883Z" fill="#3FB1B5"/>
<path d="M132.728 448.59H80.2978L78.1167 433.58H130.569L132.728 448.59Z" fill="#FFCF2D"/>
<path d="M160.702 424.922C154.158 424.922 148.864 430.214 148.864 436.756V448.59H104.248V436.756C104.248 430.214 109.541 424.922 116.085 424.922H160.702Z" fill="white"/>
<path d="M149.5 449.226H103.612V436.756C103.612 429.876 109.203 424.287 116.085 424.287H160.702V425.557C154.518 425.557 149.5 430.575 149.5 436.756V449.226ZM104.883 447.956H148.229V436.756C148.229 431.845 151.088 427.59 155.217 425.557H116.085C109.901 425.557 104.883 430.575 104.883 436.756V447.956Z" fill="#3FB1B5"/>
<path d="M171.819 433.581H127.202C125.826 428.584 121.231 424.922 115.789 424.922H160.405C165.848 424.922 170.422 428.584 171.819 433.581Z" fill="white"/>
<path d="M172.666 434.216H126.737L126.61 433.75C125.276 428.923 120.829 425.557 115.81 425.557V424.287H160.427C165.996 424.287 170.951 428.034 172.455 433.412L172.666 434.216ZM127.668 432.946H170.951C169.363 428.564 165.128 425.557 160.406 425.557H121.273C124.259 427.018 126.631 429.664 127.668 432.946Z" fill="#3FB1B5"/>
<path d="M158.901 512.546H52.3883C47.645 512.546 43.791 508.693 43.791 503.951V456.55C43.791 451.808 47.645 447.955 52.3883 447.955H158.901C163.645 447.955 167.499 451.808 167.499 456.55V503.951C167.499 508.693 163.645 512.546 158.901 512.546ZM52.3883 449.225C48.3438 449.225 45.0615 452.507 45.0615 456.55V503.951C45.0615 507.994 48.3438 511.276 52.3883 511.276H158.901C162.946 511.276 166.228 507.994 166.228 503.951V456.55C166.228 452.507 162.946 449.225 158.901 449.225H52.3883Z" fill="#3FB1B5"/>
<path d="M127.477 380.718C127.117 380.718 126.842 380.443 126.842 380.083C126.842 376.653 124.068 373.88 120.637 373.88H90.6737C87.2433 373.88 84.4693 376.653 84.4693 380.083C84.4693 380.443 84.194 380.718 83.834 380.718C83.474 380.718 83.1987 380.443 83.1987 380.083C83.1987 375.954 86.5445 372.609 90.6737 372.609H120.637C124.766 372.609 128.112 375.954 128.112 380.083C128.112 380.443 127.837 380.718 127.477 380.718Z" fill="#3FB1B5"/>
<path d="M127.477 479.943C127.117 479.943 126.842 479.668 126.842 479.308C126.842 475.878 124.068 473.105 120.637 473.105H90.6737C87.2433 473.105 84.4693 475.878 84.4693 479.308C84.4693 479.668 84.194 479.943 83.834 479.943C83.474 479.943 83.1987 479.668 83.1987 479.308C83.1987 475.18 86.5445 471.835 90.6737 471.835H120.637C124.766 471.835 128.112 475.18 128.112 479.308C128.112 479.668 127.837 479.943 127.477 479.943Z" fill="#3FB1B5"/>
<path d="M540.4 337.424H524.667V599.365H540.4V337.424Z" fill="white"/>
<path d="M541.035 600.001H524.031V336.789H541.035V600.001ZM525.302 598.731H539.765V338.059H525.302V598.731Z" fill="#3FB1B5"/>
<path d="M601.365 600.001H273.017C272.657 600.001 272.381 599.725 272.381 599.366C272.381 599.006 272.657 598.73 273.017 598.73H601.365C601.725 598.73 602 599.006 602 599.366C602 599.725 601.725 600.001 601.365 600.001Z" fill="#3FB1B5"/>
<path d="M74.3267 297.792H64.8189C64.8189 297.792 51.2454 241.246 39.3235 239.404C27.4017 237.563 26.7876 259.326 26.7876 259.326C26.7876 259.326 26.9994 226.236 56.7934 230.767C86.6086 235.297 74.3267 297.792 74.3267 297.792Z" fill="white"/>
<path d="M74.8564 298.428H64.3322L64.2051 297.941C64.1628 297.792 60.7535 283.651 55.9467 269.488C47.9846 246.052 42.4578 240.526 39.2391 240.04C37.0369 239.701 35.0887 240.209 33.4794 241.564C27.8679 246.221 27.4444 259.22 27.4444 259.347L26.1738 259.326C26.1738 259.156 26.2162 255.282 27.4655 250.328C28.6302 245.734 31.0866 239.32 36.2322 234.916C41.4626 230.449 48.4082 228.84 56.9207 230.153C62.4264 230.979 66.8944 233.815 70.219 238.536C75.5552 246.137 77.9904 258.437 77.4187 275.14C76.9952 287.525 75.0047 297.814 74.9835 297.919L74.8564 298.428ZM65.3274 297.157H73.8188C74.2212 294.934 75.7882 285.789 76.1481 275.077C76.5293 263.793 75.6188 248.444 69.1814 239.277C66.0686 234.832 61.8758 232.185 56.7301 231.423C48.6199 230.195 41.992 231.698 37.058 235.911C35.5758 237.182 34.3052 238.642 33.2464 240.188C35.0464 238.918 37.1216 238.473 39.4509 238.833C44.6389 239.637 50.6104 249.841 57.1748 269.149C61.4735 281.83 64.671 294.532 65.3274 297.157Z" fill="#3FB1B5"/>
<path d="M70.1546 297.581C69.8158 297.581 69.5193 297.305 69.5193 296.945C68.8205 254.795 59.8844 239.912 52.5153 234.874C46.925 231.042 42.0334 232.778 41.9911 232.799C41.6523 232.926 41.2923 232.757 41.1652 232.418C41.0382 232.079 41.2076 231.719 41.5464 231.592C41.7793 231.508 47.0944 229.624 53.2353 233.815C57.9786 237.076 61.8538 243.046 64.7336 251.598C68.4394 262.607 70.4722 277.85 70.7898 296.924C70.7898 297.284 70.5146 297.581 70.1546 297.581Z" fill="#3FB1B5"/>
<path d="M100.224 296.945H55.5649V333.295H100.224V296.945Z" fill="#FE5244"/>
<path d="M109.626 315.131C106.788 316.358 103.4 316.21 100.245 314.834C97.9157 313.818 95.7135 312.146 93.9348 309.859C91.4784 306.684 89.8267 302.344 89.8267 296.945C89.8267 283.862 79.4083 275.648 75.1309 292.965C74.8344 294.172 74.5591 295.484 74.3262 296.945V296.903V296.818C74.3262 296.776 74.3262 296.712 74.3474 296.649V296.564C74.4321 295.484 74.7497 292.288 75.7238 288.435C76.4437 285.577 77.5237 282.401 79.133 279.458C79.9377 277.998 80.8694 276.6 81.9706 275.351C84.8081 272.091 88.7044 269.805 94.0194 269.805C103.803 269.805 110.96 281.321 113.692 292.796C116.084 302.767 115.11 312.738 109.626 315.131Z" fill="white"/>
<path d="M105.454 316.592C103.654 316.592 101.77 316.189 99.9911 315.406C97.4712 314.305 95.2055 312.527 93.4267 310.241C90.6527 306.663 89.1916 302.048 89.1916 296.946C89.1916 290.975 86.5658 284.243 82.6484 283.778C79.8108 283.439 77.3121 286.847 75.7451 293.114C75.4275 294.426 75.1734 295.696 74.9405 297.051L73.6699 296.946V296.818C73.6699 296.776 73.6699 296.67 73.6911 296.564V296.501C73.7758 295.315 74.1146 292.14 75.0887 288.266C75.9569 284.836 77.1215 281.766 78.5615 279.141C79.472 277.511 80.4249 276.114 81.4837 274.928C84.8083 271.096 89.0222 269.17 94.0196 269.17C104.184 269.17 111.532 280.962 114.306 292.648C115.534 297.792 115.873 302.852 115.238 306.896C114.539 311.447 112.675 314.475 109.88 315.703C108.525 316.295 107.021 316.592 105.454 316.592ZM82.2672 282.486C82.4578 282.486 82.6272 282.507 82.7966 282.528C87.0317 283.037 90.4621 289.515 90.4621 296.967C90.4621 301.794 91.8385 306.133 94.4431 309.5C96.0948 311.617 98.1912 313.268 100.499 314.284C103.527 315.597 106.767 315.703 109.372 314.58C114.115 312.506 115.619 303.635 113.078 292.987C111.659 286.995 109.139 281.47 106.005 277.426C102.469 272.875 98.3394 270.482 94.0196 270.482C89.4245 270.482 85.5282 272.282 82.4578 275.817C81.4625 276.961 80.552 278.252 79.705 279.819C78.6462 281.766 77.7356 283.947 76.9945 286.36C77.3545 285.768 77.7145 285.238 78.0956 284.773C79.5991 282.931 81.1237 282.486 82.2672 282.486Z" fill="#3FB1B5"/>
<path d="M107.36 316.168C107.043 316.168 106.767 315.935 106.725 315.597C103.633 286.572 96.5819 277.596 91.2245 275.182C86.4388 273.023 82.3943 275.839 82.3519 275.86C82.0766 276.072 81.6743 275.987 81.4625 275.712C81.2508 275.436 81.3355 275.034 81.6108 274.823C81.8013 274.696 86.2906 271.562 91.7327 274.018C95.3325 275.648 98.4665 279.332 101.029 285.005C104.247 292.098 106.577 302.344 107.974 315.449C108.017 315.787 107.763 316.105 107.403 316.147C107.403 316.168 107.381 316.168 107.36 316.168Z" fill="#3FB1B5"/>
<path d="M26.1518 259.325C26.1518 262.819 25.7495 276.177 38.4972 276.791C51.2449 277.405 52.5154 258.161 52.5154 258.161C52.5154 258.161 46.2474 241.14 39.323 239.404C27.6129 236.461 26.1518 259.325 26.1518 259.325Z" fill="#3FB1B5"/>
<path d="M89.8267 296.945H74.3262C77.9048 274.526 89.8267 282.952 89.8267 296.945Z" fill="#3FB1B5"/>
<path opacity="0.4" d="M353.06 132.282V272.028C353.06 279.543 346.962 285.619 339.466 285.619H179.484C169.447 299.443 148.758 299.507 138.637 285.619L138.615 285.598C134.592 285.323 131.035 283.269 128.748 280.242L132.432 277.066L226.452 195.941L315.982 118.69H339.466C346.962 118.69 353.06 124.788 353.06 132.282Z" fill="white"/>
<path opacity="0.4" d="M109.626 315.766C106.81 317.036 103.4 316.845 100.245 315.469V333.295H67.2749L93.9561 310.283L100.266 304.842L105.073 300.692L114.369 292.796C117.08 304.355 115.576 313.035 109.626 315.766Z" fill="white"/>
<path d="M390.392 409.826V527.661H363.16L345.817 479.244L320.979 409.826H390.392Z" fill="#A0505A"/>
<path d="M320.979 409.826H390.392V447.658L329.237 432.881L320.979 409.826Z" fill="#73325A"/>
<path d="M391.027 528.296H362.716L344.653 477.868L346.135 478.673C346.177 478.694 349.693 480.578 356.85 481.509C363.457 482.377 374.637 482.568 390.244 478.609L391.027 478.419V528.296ZM363.605 527.026H389.757V480.049C374.299 483.881 363.203 483.648 356.575 482.78C351.768 482.145 348.591 481.107 346.919 480.43L363.605 527.026Z" fill="white"/>
<path d="M359.984 491.248C357.93 491.248 356.257 489.575 356.257 487.522C356.257 485.468 357.93 483.796 359.984 483.796C362.038 483.796 363.711 485.468 363.711 487.522C363.711 489.575 362.038 491.248 359.984 491.248ZM359.984 485.066C358.628 485.066 357.527 486.167 357.527 487.522C357.527 488.877 358.628 489.978 359.984 489.978C361.339 489.978 362.44 488.877 362.44 487.522C362.44 486.167 361.339 485.066 359.984 485.066Z" fill="white"/>
<path d="M374.723 501.22C372.669 501.22 370.996 499.547 370.996 497.494C370.996 495.44 372.669 493.768 374.723 493.768C376.777 493.768 378.449 495.44 378.449 497.494C378.449 499.547 376.777 501.22 374.723 501.22ZM374.723 495.038C373.367 495.038 372.266 496.139 372.266 497.494C372.266 498.849 373.367 499.949 374.723 499.949C376.078 499.949 377.179 498.849 377.179 497.494C377.179 496.139 376.078 495.038 374.723 495.038Z" fill="white"/>
<path d="M385.691 490.147C383.637 490.147 381.964 488.475 381.964 486.421C381.964 484.368 383.637 482.695 385.691 482.695C387.745 482.695 389.418 484.368 389.418 486.421C389.418 488.475 387.745 490.147 385.691 490.147ZM385.691 483.966C384.336 483.966 383.234 485.066 383.234 486.421C383.234 487.776 384.336 488.877 385.691 488.877C387.046 488.877 388.147 487.776 388.147 486.421C388.147 485.066 387.046 483.966 385.691 483.966Z" fill="white"/>
<path d="M381.35 512.82C379.296 512.82 377.623 511.148 377.623 509.094C377.623 507.041 379.296 505.368 381.35 505.368C383.404 505.368 385.077 507.041 385.077 509.094C385.077 511.148 383.404 512.82 381.35 512.82ZM381.35 506.638C379.995 506.638 378.894 507.739 378.894 509.094C378.894 510.449 379.995 511.55 381.35 511.55C382.705 511.55 383.806 510.449 383.806 509.094C383.806 507.739 382.705 506.638 381.35 506.638Z" fill="white"/>
<path d="M363.076 507.189C361.022 507.189 359.349 505.517 359.349 503.463C359.349 501.41 361.022 499.737 363.076 499.737C365.13 499.737 366.803 501.41 366.803 503.463C366.803 505.517 365.13 507.189 363.076 507.189ZM363.076 501.008C361.721 501.008 360.62 502.108 360.62 503.463C360.62 504.818 361.721 505.919 363.076 505.919C364.431 505.919 365.532 504.818 365.532 503.463C365.532 502.108 364.431 501.008 363.076 501.008Z" fill="white"/>
<path d="M368.116 524.126C366.062 524.126 364.389 522.453 364.389 520.4C364.389 518.346 366.062 516.674 368.116 516.674C370.17 516.674 371.842 518.346 371.842 520.4C371.842 522.453 370.17 524.126 368.116 524.126ZM368.116 517.944C366.76 517.944 365.659 519.045 365.659 520.4C365.659 521.755 366.76 522.856 368.116 522.856C369.471 522.856 370.572 521.755 370.572 520.4C370.572 519.045 369.471 517.944 368.116 517.944Z" fill="white"/>
<path d="M403.267 549.636L384.59 588.399C381.943 594.644 375.823 598.709 369.026 598.709H345.203C339.105 598.709 335.399 592.527 337.728 586.896L361.678 529.143C363.012 525.629 365.363 522.707 368.306 520.653C371.271 518.6 374.828 517.436 378.576 517.436C383.785 517.436 388.952 520.971 392.383 524.888L400.683 533.843C404.516 538.204 405.511 544.322 403.267 549.636Z" fill="#66B0F0"/>
<path d="M403.267 549.635L384.59 588.398C381.943 594.644 375.823 598.708 369.026 598.708H343.7C341.35 598.708 340.015 597.248 339.232 595.236H344.865C351.662 595.236 357.782 591.172 360.429 584.926L381.964 540.024C383.976 535.832 388.232 533.144 392.891 533.144C398.968 533.144 403.584 537.589 404.431 543.221C404.516 545.38 404.135 547.561 403.267 549.635Z" fill="white"/>
<path d="M369.026 599.344H343.7C341.349 599.344 339.634 598.031 338.639 595.47C338.554 595.279 338.596 595.046 338.702 594.877C338.829 594.707 339.02 594.602 339.232 594.602H344.864C351.408 594.602 357.295 590.706 359.836 584.673C359.836 584.673 359.836 584.652 359.857 584.652L381.392 539.749C383.51 535.346 388.02 532.509 392.891 532.509C399.01 532.509 404.135 536.976 405.067 543.136C405.067 543.157 405.067 543.179 405.067 543.2C405.151 545.486 404.749 547.752 403.86 549.89C403.86 549.89 403.86 549.911 403.838 549.911L385.162 588.653C382.409 595.152 376.077 599.344 369.026 599.344ZM340.227 595.872C341.032 597.375 342.154 598.074 343.7 598.074H369.026C375.569 598.074 381.456 594.178 383.997 588.145C383.997 588.145 383.997 588.123 384.018 588.123L402.695 549.382C403.5 547.434 403.881 545.38 403.796 543.285C402.949 537.78 398.375 533.779 392.891 533.779C388.507 533.779 384.442 536.341 382.536 540.3L361 585.181C358.247 591.68 351.916 595.872 344.864 595.872H340.227Z" fill="#66B0F0"/>
<path d="M398.968 531.98C396.723 530.752 394.013 529.863 391.641 529.863C387.089 529.863 382.875 532.509 380.905 536.616L358.607 583.107C355.77 589.818 349.206 594.158 341.9 594.158H337.792C337.58 593.755 337.432 593.332 337.284 592.887H341.9C348.697 592.887 354.796 588.844 357.443 582.599L357.464 582.577L379.783 536.066C381.964 531.514 386.623 528.593 391.663 528.593C393.272 528.593 395.199 529.122 396.851 529.694L398.968 531.98Z" fill="white"/>
<path d="M320.979 409.826L315.664 479.244L313.292 510.343C313.292 510.343 297.813 527.576 280.194 516.948L272.042 479.265L253.386 393.038C248.346 369.729 264.27 347.056 287.924 343.901L320.979 409.826Z" fill="#A0505A"/>
<path d="M292.116 521.881C288.326 521.881 284.154 520.928 279.877 518.345L279.644 518.197L271.216 478.354L272.232 478.672C292.285 484.684 315.282 478.714 315.515 478.651L316.383 478.418L313.927 511.465L313.779 511.634C313.609 511.804 309.755 516.059 303.636 519.065C300.565 520.547 296.584 521.881 292.116 521.881ZM280.766 517.393C287.796 521.542 295.292 521.711 303.043 517.922C308.294 515.339 311.936 511.698 312.677 510.915L314.964 480.069C313.037 480.514 308.04 481.594 301.581 482.186C294.149 482.885 283.244 483.054 272.868 480.175L280.766 517.393Z" fill="white"/>
<path d="M291.332 499.08C289.278 499.08 287.605 497.407 287.605 495.354C287.605 493.3 289.278 491.628 291.332 491.628C293.386 491.628 295.059 493.3 295.059 495.354C295.059 497.407 293.386 499.08 291.332 499.08ZM291.332 492.898C289.977 492.898 288.876 493.999 288.876 495.354C288.876 496.709 289.977 497.81 291.332 497.81C292.688 497.81 293.789 496.709 293.789 495.354C293.789 493.999 292.688 492.898 291.332 492.898Z" fill="white"/>
<path d="M310.983 494.339C308.929 494.339 307.256 492.666 307.256 490.613C307.256 488.559 308.929 486.887 310.983 486.887C313.037 486.887 314.71 488.559 314.71 490.613C314.71 492.666 313.037 494.339 310.983 494.339ZM310.983 488.157C309.628 488.157 308.527 489.258 308.527 490.613C308.527 491.968 309.628 493.068 310.983 493.068C312.339 493.068 313.44 491.968 313.44 490.613C313.44 489.258 312.339 488.157 310.983 488.157Z" fill="white"/>
<path d="M279.474 490.146C277.42 490.146 275.747 488.474 275.747 486.42C275.747 484.367 277.42 482.694 279.474 482.694C281.528 482.694 283.201 484.367 283.201 486.42C283.201 488.474 281.528 490.146 279.474 490.146ZM279.474 483.965C278.119 483.965 277.018 485.065 277.018 486.42C277.018 487.775 278.119 488.876 279.474 488.876C280.829 488.876 281.93 487.775 281.93 486.42C281.93 485.065 280.829 483.965 279.474 483.965Z" fill="white"/>
<path d="M288.241 515.911C286.187 515.911 284.514 514.238 284.514 512.185C284.514 510.131 286.187 508.459 288.241 508.459C290.295 508.459 291.968 510.131 291.968 512.185C291.968 514.238 290.295 515.911 288.241 515.911ZM288.241 509.729C286.886 509.729 285.785 510.83 285.785 512.185C285.785 513.54 286.886 514.641 288.241 514.641C289.596 514.641 290.697 513.54 290.697 512.185C290.697 510.83 289.596 509.729 288.241 509.729Z" fill="white"/>
<path d="M302.661 509.729C300.607 509.729 298.935 508.057 298.935 506.003C298.935 503.95 300.607 502.277 302.661 502.277C304.715 502.277 306.388 503.95 306.388 506.003C306.388 508.057 304.715 509.729 302.661 509.729ZM302.661 503.548C301.306 503.548 300.205 504.648 300.205 506.003C300.205 507.358 301.306 508.459 302.661 508.459C304.017 508.459 305.118 507.358 305.118 506.003C305.118 504.648 304.017 503.548 302.661 503.548Z" fill="white"/>
<path d="M333.705 517.753L313.292 599.365H306.855C306.558 599.365 306.283 599.344 305.986 599.323C301.116 598.878 297.008 594.771 295.97 589.923L280.173 516.906C297.791 527.555 313.292 510.322 313.292 510.322L333.705 517.753Z" fill="#66B0F0"/>
<path d="M334.743 559.629C339.041 536.934 340.227 519.595 332.816 518.198C325.404 516.801 312.212 531.853 307.913 554.548C303.615 577.242 305.859 597.312 313.271 598.709C320.682 600.128 330.444 582.345 334.743 559.629Z" fill="white"/>
<path d="M314.118 599.429C313.8 599.429 313.461 599.408 313.143 599.344C309.29 598.625 306.6 593.417 305.563 584.694C304.567 576.29 305.181 565.535 307.278 554.442C309.268 543.963 313.313 534.203 318.67 526.963C323.583 520.336 328.919 516.822 332.921 517.584C336.775 518.304 338.681 522.665 338.787 530.922C338.872 537.654 337.749 547.075 335.357 559.756C333.663 568.69 331.1 577.094 327.945 584.059C324.832 590.94 321.423 595.767 318.098 598.032C316.743 598.942 315.409 599.429 314.118 599.429ZM331.82 518.749C328.432 518.749 323.879 522.093 319.708 527.725C314.456 534.817 310.496 544.386 308.527 554.675C306.452 565.662 305.838 576.269 306.812 584.546C307.765 592.549 310.158 597.481 313.376 598.095C314.605 598.328 315.96 597.947 317.4 596.973C323.901 592.549 330.783 577.158 334.107 559.523C336.5 546.948 337.601 537.59 337.516 530.943C337.432 523.491 335.801 519.426 332.688 518.833C332.413 518.77 332.117 518.749 331.82 518.749Z" fill="#66B0F0"/>
<path d="M304.948 554.188C302.725 565.958 302.069 577.327 303.127 586.218C303.89 592.612 305.499 597.164 307.701 599.365H306.854C306.558 599.365 306.282 599.344 305.986 599.323C303.996 596.698 302.577 592.294 301.857 586.367C300.777 577.369 301.433 565.852 303.699 553.955C305.838 542.692 310.158 532.128 315.896 524.189C319.327 519.447 322.926 516.123 326.209 514.62L328.114 515.255C320.555 517.499 309.078 532.403 304.948 554.188Z" fill="white"/>
<path d="M287.924 343.881L384.527 333.931L481.088 361.008L480.262 373.837C478.949 394.076 461.5 409.827 441.214 409.827H321.001L287.924 343.881Z" fill="#FE5244"/>
<path d="M436.957 401.572H316.744C316.384 401.572 316.108 401.296 316.108 400.936C316.108 400.577 316.384 400.301 316.744 400.301H436.957C446.147 400.301 455.782 395.453 463.406 386.964C470.626 378.919 474.946 368.863 474.946 360.077C474.946 359.718 475.222 359.442 475.582 359.442C475.942 359.442 476.217 359.718 476.217 360.077C476.217 369.181 471.77 379.554 464.358 387.832C456.481 396.554 446.507 401.572 436.957 401.572Z" fill="white"/>
<path d="M427.492 390.986H311.874C311.514 390.986 311.238 390.711 311.238 390.351C311.238 389.991 311.514 389.716 311.874 389.716H427.492C435.518 389.716 443.818 385.947 450.828 379.088C457.413 372.652 462.029 364.353 463.491 356.309C463.554 355.97 463.893 355.737 464.232 355.8C464.571 355.864 464.803 356.203 464.74 356.541C461.754 372.822 445.724 390.986 427.492 390.986Z" fill="white"/>
<path d="M417.306 380.188H305.732C305.372 380.188 305.097 379.913 305.097 379.553C305.097 379.193 305.372 378.918 305.732 378.918H417.306C432.553 378.918 445.788 365.2 450.51 352.307C450.637 351.968 450.997 351.799 451.314 351.926C451.653 352.053 451.823 352.413 451.696 352.73C449.07 359.907 444.326 366.661 438.313 371.741C431.769 377.267 424.506 380.188 417.306 380.188Z" fill="white"/>
<path d="M411.801 368.545H300.227C299.867 368.545 299.592 368.27 299.592 367.91C299.592 367.55 299.867 367.275 300.227 367.275H411.801C422.304 367.275 433.315 360.437 440.557 349.45C440.748 349.153 441.15 349.068 441.447 349.259C441.743 349.449 441.828 349.852 441.637 350.148C434.141 361.495 422.728 368.545 411.801 368.545Z" fill="white"/>
<path d="M406.507 357.96H294.933C294.573 357.96 294.298 357.684 294.298 357.324C294.298 356.965 294.573 356.689 294.933 356.689H406.507C414.596 356.689 422.749 352.963 429.462 346.21C429.716 345.956 430.118 345.956 430.351 346.21C430.605 346.464 430.605 346.866 430.351 347.099C423.405 354.107 414.935 357.96 406.507 357.96Z" fill="white"/>
<path d="M400.79 347.163H289.216C288.856 347.163 288.581 346.888 288.581 346.528C288.581 346.168 288.856 345.893 289.216 345.893H400.79C405.554 345.893 410.34 344.538 415.041 341.891C415.337 341.722 415.74 341.828 415.909 342.124C416.079 342.421 415.973 342.823 415.676 342.992C410.785 345.766 405.766 347.163 400.79 347.163Z" fill="white"/>
<path d="M320.768 410.463C320.535 410.463 320.302 410.336 320.196 410.103L287.141 344.157C286.992 343.839 287.12 343.458 287.416 343.31C287.734 343.162 288.115 343.289 288.263 343.585L321.318 409.531C321.466 409.849 321.339 410.23 321.043 410.378C320.958 410.442 320.873 410.463 320.768 410.463Z" fill="white"/>
<path d="M486.381 272.643C477.276 275.225 468.318 274.463 467.365 271.69C466.476 269.044 470.499 264.513 478.652 261.507C479.054 261.359 479.478 261.211 479.901 261.062C482.358 260.237 484.814 259.707 487.122 259.432C493.962 258.564 499.531 259.792 500.23 261.867C501.183 264.64 496.016 269.912 486.381 272.643Z" fill="white"/>
<path d="M475.539 274.865C470.923 274.865 467.429 273.827 466.751 271.901C465.608 268.514 470.626 263.793 478.419 260.913C478.821 260.765 479.245 260.617 479.668 260.469H479.69C482.082 259.664 484.56 259.114 487.037 258.818C494.047 257.928 499.976 259.156 500.823 261.676C501.119 262.501 500.971 263.517 500.42 264.576C498.642 267.963 493.2 271.393 486.55 273.277C482.718 274.335 478.843 274.865 475.539 274.865ZM491.463 259.791C490.171 259.791 488.753 259.876 487.207 260.067C484.814 260.363 482.421 260.892 480.113 261.676C479.69 261.824 479.266 261.972 478.885 262.12C475.2 263.475 472.066 265.275 470.076 267.201C468.403 268.81 467.62 270.419 467.98 271.499C468.678 273.552 476.831 274.695 486.212 272.049C491.4 270.588 497.456 267.519 499.298 263.983C499.679 263.242 499.806 262.586 499.637 262.078C499.256 260.956 496.249 259.791 491.463 259.791Z" fill="#3FB1B5"/>
<path d="M480.621 334.374H477.127L467.958 272.493V272.451L467.725 270.906C468.17 268.09 472.574 264.11 480.346 261.527C484.221 260.236 488.075 259.664 491.357 259.601L494.703 268.767L495.02 269.635L505.608 298.66C511.961 315.999 499.107 334.374 480.621 334.374Z" fill="#A0505A"/>
<path d="M494.914 269.424C492.691 270.821 489.811 272.112 486.381 273.086C478.503 275.309 470.52 274.399 467.958 272.493V272.451L467.725 270.906C468.17 268.09 472.574 264.11 480.346 261.527C484.221 260.236 488.075 259.664 491.357 259.601L494.914 269.424Z" fill="#73325A"/>
<path d="M367.205 283.46L356.088 311.109C350.603 324.764 337.347 333.719 322.609 333.719H173.173V320.043C173.173 316.74 175.206 313.776 178.298 312.612L193.65 306.79C195.048 306.261 196.509 305.985 197.991 305.985H215.419L314.054 296.035L331.079 257.061L367.205 283.46Z" fill="#A0505A"/>
<path d="M173.809 325.822C173.449 325.822 173.173 325.547 173.173 325.187C173.173 322.414 174.846 319.979 177.451 318.984L189.034 314.602C189.351 314.475 189.733 314.644 189.86 314.962C189.987 315.279 189.817 315.661 189.5 315.788L177.917 320.17C175.82 320.974 174.444 322.943 174.444 325.187C174.444 325.547 174.169 325.822 173.809 325.822Z" fill="#73325A"/>
<path d="M173.809 332.808C173.449 332.808 173.173 332.532 173.173 332.173C173.173 329.399 174.846 326.965 177.451 325.97L189.034 321.587C189.351 321.46 189.733 321.63 189.86 321.947C189.987 322.265 189.817 322.646 189.5 322.773L177.917 327.155C175.82 327.96 174.444 329.928 174.444 332.173C174.444 332.532 174.169 332.808 173.809 332.808Z" fill="#73325A"/>
<path d="M177.683 333.719C177.429 333.719 177.175 333.55 177.091 333.296C176.963 332.957 177.133 332.597 177.472 332.491L189.055 328.32C189.394 328.193 189.754 328.363 189.859 328.702C189.986 329.04 189.817 329.4 189.478 329.506L177.895 333.677C177.832 333.698 177.747 333.719 177.683 333.719Z" fill="#73325A"/>
<path d="M188.06 309.139C188.06 309.139 198.901 281.47 202.374 281.936C205.847 282.401 192.761 307.361 192.761 307.361L188.06 309.139Z" fill="#FE5244"/>
<path d="M331.079 257.082L328.581 262.777L360.577 299.931L367.205 283.46L331.079 257.082Z" fill="#73325A"/>
<path d="M467.958 272.515L481.087 361.008L384.548 333.931L367.205 283.439L322.44 250.731L338.152 232.016C352.17 215.313 372.859 205.659 394.67 205.659H425.692C452.67 205.659 477.509 220.394 490.447 244.062L500.505 261.464C500.505 261.464 497.477 257.019 481.151 261.486C466.773 265.444 467.958 272.515 467.958 272.515Z" fill="#3FB1B5"/>
<path d="M367.205 283.672C367.163 283.672 367.099 283.672 367.057 283.65C366.718 283.566 366.506 283.227 366.591 282.888L371.61 261.125C371.694 260.786 372.033 260.575 372.372 260.659C372.711 260.744 372.922 261.083 372.838 261.421L367.819 283.185C367.756 283.481 367.502 283.672 367.205 283.672Z" fill="white"/>
<path d="M478.652 340.98C478.355 340.98 478.08 340.769 478.017 340.451L461.69 238.981C461.627 238.642 461.86 238.304 462.22 238.261C462.558 238.198 462.897 238.431 462.939 238.791L479.266 340.26C479.329 340.599 479.097 340.938 478.737 340.98C478.715 340.98 478.694 340.98 478.652 340.98Z" fill="white"/>
<path d="M480.876 361.643C480.812 361.643 480.77 361.643 480.706 361.622L384.357 334.142C384.019 334.037 383.828 333.698 383.913 333.359C384.018 333.02 384.357 332.83 384.696 332.915L481.045 360.394C481.384 360.5 481.574 360.838 481.49 361.177C481.405 361.452 481.151 361.643 480.876 361.643Z" fill="white"/>
<path d="M389.735 191.517V205.744L414.85 205.532V180.424L389.735 191.517Z" fill="#A0505A"/>
<path d="M416.883 176.041V176.422C416.883 180.233 414.003 183.324 410.191 183.324H408.709C407.756 187.092 399.286 191.496 393.272 191.496H386.263C378.597 191.496 372.732 184.615 373.981 177.036L374.32 174.983L372.245 173.818C371.059 173.141 370.72 171.596 371.546 170.495L376.035 164.567L377.009 158.724C377.793 153.918 380.948 150.002 385.14 148.075C386.792 166.684 403.224 168.886 407.565 169.14H409.979C413.791 169.14 416.883 172.231 416.883 176.041Z" fill="#A0505A"/>
<path d="M405.766 178.497C405.406 178.497 405.13 178.222 405.13 177.862C405.13 174.517 407.862 171.786 411.208 171.786C411.568 171.786 411.843 172.061 411.843 172.421C411.843 172.781 411.568 173.056 411.208 173.056C408.561 173.056 406.401 175.216 406.401 177.862C406.401 178.222 406.126 178.497 405.766 178.497Z" fill="#73325A"/>
<path d="M382.811 169.33C383.408 169.33 383.891 168.212 383.891 166.832C383.891 165.452 383.408 164.334 382.811 164.334C382.215 164.334 381.731 165.452 381.731 166.832C381.731 168.212 382.215 169.33 382.811 169.33Z" fill="#73325A"/>
<path d="M387.216 163.678C387.025 163.678 386.834 163.593 386.707 163.424C383.891 159.529 381.265 159.74 381.223 159.74C380.863 159.783 380.566 159.529 380.524 159.169C380.482 158.83 380.736 158.512 381.096 158.47C381.223 158.449 384.484 158.195 387.724 162.662C387.936 162.937 387.872 163.339 387.576 163.551C387.47 163.636 387.343 163.678 387.216 163.678Z" fill="#73325A"/>
<path d="M407.566 169.14H409.98C413.791 169.14 416.883 172.231 416.883 176.042V176.423C416.883 180.233 414.003 183.324 410.191 183.324L408.561 184.467C401.7 188.871 392.213 206.188 394.543 218.446C397.168 232.228 409.175 235.298 420.271 233.181C431.367 231.064 439.456 224.607 436.83 210.803C436.534 209.173 436.047 207.543 435.433 205.934C435.623 205.998 435.793 206.061 435.983 206.125C449.324 209.766 464.994 210.19 469.314 199.774C473.633 189.358 472.659 179.048 459.679 173.671C452.14 170.537 441.891 170.559 433.95 172.718C437.953 158.809 430.838 143.333 417.772 141.788C397.253 139.353 385.479 147.821 385.162 148.054C385.141 150.51 386.813 167.933 407.566 169.14Z" fill="#73325A"/>
<path d="M435.983 206.781C435.687 206.781 435.411 206.57 435.369 206.273C433.124 194.524 423.511 188.045 423.405 187.982C423.235 187.876 423.129 187.664 423.129 187.453C423.129 187.241 423.235 187.05 423.405 186.923C429.969 182.287 432.807 175.597 433.908 172.041C434.014 171.702 434.374 171.511 434.691 171.617C435.03 171.723 435.221 172.083 435.115 172.4C434.014 175.999 431.219 182.605 424.845 187.431C427.238 189.231 434.628 195.54 436.618 206.019C436.682 206.358 436.449 206.697 436.11 206.76C436.068 206.781 436.025 206.781 435.983 206.781Z" fill="white"/>
<path d="M440.24 172.4H434.628C434.268 172.4 433.993 172.125 433.993 171.765V166.155C433.993 162.874 436.661 160.206 439.944 160.206H440.24C443.522 160.206 446.19 162.874 446.19 166.155V166.451C446.212 168.018 445.597 169.521 444.475 170.643C443.353 171.765 441.849 172.4 440.24 172.4ZM435.264 171.13H440.24C441.511 171.13 442.675 170.643 443.565 169.733C444.433 168.844 444.92 167.679 444.92 166.451V166.155C444.92 163.572 442.823 161.476 440.24 161.476H439.944C437.36 161.476 435.264 163.572 435.264 166.155V171.13Z" fill="#FE5244"/>
<path d="M443.374 180.995C441.108 180.995 438.927 179.894 437.635 177.862L434.035 172.146C433.845 171.85 433.929 171.447 434.226 171.278L439.943 167.679C441.468 166.726 443.289 166.409 445.047 166.811C446.804 167.213 448.308 168.272 449.282 169.796L449.621 170.325C450.595 171.85 450.891 173.67 450.489 175.427C450.087 177.185 449.028 178.688 447.503 179.662L446.974 180C445.873 180.657 444.623 180.995 443.374 180.995ZM435.454 171.998L438.715 177.185C440.325 179.725 443.734 180.487 446.317 178.878L446.847 178.54C448.096 177.756 448.943 176.55 449.261 175.11C449.578 173.67 449.324 172.21 448.541 170.961L448.202 170.431C447.418 169.182 446.211 168.335 444.771 168.018C443.331 167.7 441.87 167.954 440.621 168.738L435.454 171.998Z" fill="#FE5244"/>
<path d="M408.688 197.932C408.54 197.932 408.391 197.932 408.243 197.911C406.655 197.784 405.215 197.064 404.177 195.858L403.987 195.625C402.949 194.439 402.441 192.915 402.547 191.348C402.653 189.76 403.373 188.3 404.58 187.262L408.561 183.452C408.688 183.325 408.857 183.261 409.027 183.282C409.196 183.282 409.365 183.367 409.471 183.494L413.389 187.919C414.426 189.125 414.956 190.671 414.829 192.259C414.702 193.846 413.982 195.286 412.775 196.323L412.521 196.514C411.483 197.424 410.128 197.932 408.688 197.932ZM408.984 184.807L405.469 188.173L405.448 188.194C404.495 189.02 403.923 190.163 403.839 191.433C403.754 192.682 404.156 193.868 404.961 194.799C404.961 194.799 404.961 194.82 404.982 194.82L405.173 195.053C405.977 195.985 407.1 196.556 408.349 196.662C409.598 196.747 410.805 196.344 411.758 195.54L412.012 195.328C412.944 194.524 413.516 193.402 413.622 192.153C413.706 190.904 413.304 189.697 412.499 188.744L408.984 184.807Z" fill="#FE5244"/>
<path d="M416.798 195.604C413.834 195.604 411.102 193.635 410.255 190.65L408.455 184.151C408.37 183.812 408.561 183.473 408.9 183.367L415.401 181.568C417.137 181.081 418.958 181.314 420.525 182.182C422.092 183.071 423.236 184.51 423.723 186.246L423.892 186.86C424.379 188.596 424.146 190.417 423.278 191.984C422.389 193.55 420.949 194.693 419.212 195.18L418.598 195.35C417.984 195.54 417.391 195.604 416.798 195.604ZM411.483 190.311C412.309 193.212 415.337 194.948 418.238 194.143L418.852 193.974C420.271 193.571 421.436 192.661 422.156 191.391C422.876 190.121 423.045 188.639 422.664 187.22L422.494 186.606C422.092 185.188 421.182 184.024 419.911 183.304C418.641 182.584 417.158 182.415 415.739 182.796L409.853 184.426L411.483 190.311Z" fill="#FE5244"/>
<path d="M316.193 599.344C316.15 599.344 316.108 599.344 316.066 599.323C315.727 599.26 315.494 598.921 315.579 598.561L352.466 425.958C352.53 425.62 352.869 425.387 353.229 425.472C353.568 425.535 353.8 425.874 353.716 426.234L316.807 598.836C316.743 599.132 316.489 599.344 316.193 599.344Z" fill="#FFCF2D"/>
<path d="M484.369 599.345C484.073 599.345 483.818 599.133 483.755 598.837L446.867 426.234C446.804 425.896 447.015 425.557 447.354 425.472C447.693 425.409 448.032 425.62 448.117 425.959L485.004 598.561C485.068 598.9 484.856 599.239 484.517 599.324C484.454 599.345 484.411 599.345 484.369 599.345Z" fill="#FFCF2D"/>
<path d="M475.687 561.026H324.367C324.007 561.026 323.731 560.751 323.731 560.391C323.731 560.031 324.007 559.756 324.367 559.756H475.687C476.047 559.756 476.322 560.031 476.322 560.391C476.322 560.751 476.047 561.026 475.687 561.026Z" fill="#FFCF2D"/>
<path d="M476.512 426.106H324.027C322.1 426.106 320.533 424.54 320.533 422.613V413.319C320.533 411.393 322.1 409.826 324.027 409.826H476.512C478.439 409.826 480.006 411.393 480.006 413.319V422.613C480.006 424.54 478.439 426.106 476.512 426.106Z" fill="white"/>
<path d="M476.512 426.742H324.027C321.74 426.742 319.898 424.9 319.898 422.614V413.32C319.898 411.033 321.74 409.191 324.027 409.191H476.512C478.799 409.191 480.642 411.033 480.642 413.32V422.614C480.642 424.9 478.799 426.742 476.512 426.742ZM324.027 410.462C322.46 410.462 321.168 411.753 321.168 413.32V422.614C321.168 424.18 322.46 425.472 324.027 425.472H476.512C478.079 425.472 479.371 424.18 479.371 422.614V413.32C479.371 411.753 478.079 410.462 476.512 410.462H324.027Z" fill="#66B0F0"/>
</svg>
